<svg id="Calque_1" data-name="Calque 1" xmlns="http://www.w3.org/2000/svg" viewBox="0 0 283.46 283.46"><defs><style>.cls-1{fill:#fff;stroke:#1d1d1b;stroke-linecap:round;stroke-linejoin:round;stroke-width:5px;}</style></defs><polyline class="cls-1" points="117.44 171 117.44 147.12 141.33 147.12"/><rect class="cls-1" x="130.17" y="157.48" width="23.88" height="23.88"/><line class="cls-1" x1="141.33" y1="147.12" x2="154.05" y2="157.48"/><polygon class="cls-1" points="130.17 181.37 117.52 171.26 117.52 147.37 130.17 157.48 130.17 181.37"/><polyline class="cls-1" points="129.41 147.12 129.41 123.23 153.29 123.23"/><rect class="cls-1" x="142.14" y="133.6" width="23.88" height="23.88"/><line class="cls-1" x1="153.29" y1="123.23" x2="166.02" y2="133.6"/><polygon class="cls-1" points="142.14 157.48 129.49 147.37 129.49 123.49 142.14 133.6 142.14 157.48"/><polyline class="cls-1" points="117.47 123.18 117.47 99.3 141.35 99.3"/><rect class="cls-1" x="130.2" y="109.67" width="23.88" height="23.88"/><line class="cls-1" x1="141.35" y1="99.3" x2="154.08" y2="109.67"/><polygon class="cls-1" points="130.19 133.55 117.55 123.44 117.55 99.56 130.19 109.67 130.19 133.55"/></svg>