<?xml version="1.0" encoding="utf-8"?>
<!-- Generator: Adobe Illustrator 26.3.1, SVG Export Plug-In . SVG Version: 6.00 Build 0)  -->
<svg version="1.1" id="Calque_1" xmlns="http://www.w3.org/2000/svg" xmlns:xlink="http://www.w3.org/1999/xlink" x="0px" y="0px"
	 viewBox="0 0 566.9 566.9" style="enable-background:new 0 0 566.9 566.9;" xml:space="preserve">
<style type="text/css">
	.st0{fill:#FFFFFF;}
</style>
<g>
	<path class="st0" d="M519.7,337.4l-3.9,7.5c-1.4,2.5-2.2,5-3.9,7.2l-4.4,7.2c-1.4,2.5-2.8,4.7-4.7,6.9
		c-6.7,9.2-14.2,17.8-22.8,25.6c-2.5,2.2-5,4.4-7.8,6.7c-65.3,0-111.1-16.7-142.8-50c-3.3-3.3-2.2-6.7,1.4-7.8
		c291.1-90.8,106.7-231.4-67.8-174.4c-16.4-11.9-40-15-65.8-12.2c4.7-4.4,9.4-8.6,14.4-12.5c20-15.6,43.1-26.7,66.9-33.6
		c23.9-6.9,48.9-9.2,73.3-7.5c48.9,3.6,95,23.3,128.3,55c16.9,15.6,30.3,34.2,39.7,54.4c9.4,20,14.4,41.9,13.9,63.9
		C533.9,295.4,529.1,317.4,519.7,337.4 M278.3,439.1c-19.4-5.6-38.1-13.9-55.3-25.3c17.8-19.4,31.1-38.1,40.6-50.8
		c6.7-8.6,11.4-6.4,16.4-1.4c28.6,28.6,66.4,64.7,105.8,79.4c-11.4,2.8-22.8,4.4-34.4,5.3C327.2,447.9,302.2,445.7,278.3,439.1
		 M75.8,441.6c-26.1-1.1-31.9-24.4-23.1-42.8c23.9-48.6,86.1-87.5,147.8-95c46.9-9.7,36.1-29.2,16.1-41.9c0,0-26.1-16.9-5.6-32.2
		c145-107.5,378.1-16.9,105.3,75c-6.9,2.2-15.8-1.7-8.3-11.4c40.3-52.5,45-76.9,7.2-62.5C298.3,237.7,203.9,447.1,75.8,441.6
		 M102.8,237.7c24.4-26.7,56.7-47.2,95.8-47.2c7.5,0,8.1,5.8,4.2,9.2c-6.9,5.8-15.6,13.1-21.4,17.8c-16.1,13.3-21.9,25.3-12.8,38.9
		c4.2,6.4,1.1,8.9-3.1,10c-8.9,2.2-16.7,4.4-22.2,5.6C97.8,280.4,83.6,258.5,102.8,237.7 M545.3,197.1
		c-11.7-23.6-28.6-44.4-48.6-61.4c-40.3-33.9-92.8-51.7-145-51.7c-52.2,0.3-104.7,18.1-144.7,52.2c-6.9,5.8-13.3,12.2-19.4,19.2
		C94.1,171-16.7,259.6,98.3,305.4C-98.1,441.8,53,522.4,159.7,465.7c23.3-13.3,42.5-30,58.1-46.4c38.3,28.3,86.1,43.3,133.6,43.6
		c30.8,0,61.7-6.1,90.3-18.1c7.2-2.2,14.4-5.6,21.7-10.6c11.7-6.7,23.1-14.2,33.3-23.1c20-16.9,36.9-37.8,48.6-61.4
		c11.7-23.6,18.1-50,18.1-76.4C563.3,247.1,556.9,220.7,545.3,197.1"/>
</g>
</svg>
