<?xml version="1.0" encoding="utf-8"?>
<!-- Generator: Adobe Illustrator 24.2.3, SVG Export Plug-In . SVG Version: 6.00 Build 0)  -->
<svg version="1.1" id="Calque_1" xmlns="http://www.w3.org/2000/svg" xmlns:xlink="http://www.w3.org/1999/xlink" x="0px" y="0px"
	 viewBox="0 0 566.93 566.93" style="enable-background:new 0 0 566.93 566.93;" xml:space="preserve">
<g>
	<path d="M355.96,299.66l-1.38,2.66c-0.47,0.88-0.83,1.83-1.42,2.65l-1.59,2.57c-0.52,0.87-1.05,1.73-1.71,2.51
		c-2.4,3.28-5.11,6.37-8.16,9.16c-0.89,0.84-1.81,1.64-2.75,2.43c-23.46,0.01-40.04-5.97-51.42-17.97c-1.19-1.25-0.78-2.41,0.46-2.8
		c104.83-32.72,38.39-83.28-24.42-62.77c-5.89-4.26-14.44-5.4-23.72-4.36c1.66-1.59,3.38-3.1,5.16-4.52
		c7.17-5.63,15.5-9.58,24.08-12.1c8.63-2.46,17.6-3.27,26.38-2.72c17.56,1.3,34.19,8.42,46.24,19.79
		c6.11,5.58,10.92,12.33,14.26,19.57c3.42,7.21,5.17,15.07,5.05,22.96C361.11,284.6,359.39,292.46,355.96,299.66 M269.11,336.28
		c-6.95-2.04-13.72-5.04-19.87-9.08c6.42-6.99,11.17-13.74,14.62-18.28c2.36-3.1,4.14-2.26,5.92-0.48
		c10.28,10.26,23.94,23.3,38.12,28.61c-4.06,0.96-8.22,1.62-12.44,1.93C286.71,339.54,277.73,338.73,269.11,336.28 M196.24,337.24
		c-9.41-0.41-11.52-8.77-8.29-15.35c8.6-17.53,31.03-31.5,53.24-34.25c16.87-3.46,13.02-10.46,5.83-15.1c0,0-9.43-6.09-1.96-11.62
		c52.2-38.68,136.07-6.06,37.9,26.99c-2.45,0.82-5.66-0.59-3-4.06c14.47-18.88,16.25-27.66,2.59-22.45
		C276.33,263.76,242.28,339.23,196.24,337.24 M205.86,263.81c8.78-9.59,20.45-17.04,34.49-17.03c2.67,0,2.93,2.06,1.48,3.27
		c-2.54,2.14-5.6,4.69-7.66,6.39c-5.83,4.82-7.89,9.11-4.55,14c1.54,2.26,0.45,3.19-1.15,3.59c-3.18,0.8-6.04,1.58-7.98,1.96
		C204.08,279.16,198.99,271.32,205.86,263.81 M365.18,249.25c-4.2-8.5-10.26-16.02-17.47-22.11c-14.46-12.25-33.41-18.6-52.23-18.59
		c-18.82,0.07-37.71,6.52-52.06,18.79c-2.49,2.12-4.83,4.43-7,6.87c-33.62,5.56-73.5,37.52-32.12,53.95
		c-70.74,49.09-16.29,78.12,22.11,57.71c8.37-4.81,15.27-10.77,20.95-16.68c13.77,10.23,30.96,15.6,48.11,15.67
		c11.09,0.01,22.22-2.21,32.46-6.53c2.62-0.79,5.21-2.02,7.75-3.76c4.25-2.37,8.29-5.13,12.02-8.29
		c7.22-6.09,13.28-13.61,17.48-22.11c4.21-8.49,6.5-17.96,6.5-27.46C371.67,267.21,369.39,257.74,365.18,249.25"/>
</g>
</svg>
