<?xml version="1.0" encoding="utf-8"?>
<!-- Generator: Adobe Illustrator 26.3.1, SVG Export Plug-In . SVG Version: 6.00 Build 0)  -->
<svg version="1.1" id="Calque_1" xmlns="http://www.w3.org/2000/svg" xmlns:xlink="http://www.w3.org/1999/xlink" x="0px" y="0px"
	 viewBox="0 0 1024 700" style="enable-background:new 0 0 1024 700;" xml:space="preserve">
<style type="text/css">
	.st0{fill:#191919;}
</style>
<g>
	<polygon class="st0" points="37.3,383.8 37.3,342.2 326,224.7 326,271.6 97.9,363 326,454.5 326,501.3 	"/>
	<polygon class="st0" points="45.3,347.6 45.3,378.4 318,489.4 318,459.9 76.4,363 318,266.2 318,236.6 	"/>
	<polygon class="st0" points="702.9,454.5 931,363 702.9,271.6 702.9,224.7 991.6,342.2 991.6,383.8 702.9,501.3 	"/>
	<polygon class="st0" points="710.9,266.2 952.5,363 710.9,459.9 710.9,489.4 983.6,378.4 983.6,347.6 710.9,236.6 	"/>
	<polygon class="st0" points="385.5,653.7 589.1,72.3 633.8,72.3 430.1,653.7 	"/>
	<polygon class="st0" points="594.8,80.3 396.8,645.7 424.4,645.7 622.5,80.3 	"/>
</g>
</svg>
